<?xml version="1.0" encoding="UTF-8" standalone="no"?>
<!-- Created with Inkscape (http://www.inkscape.org/) -->

<svg
   version="1.1"
   id="svg3257"
   width="143"
   height="151"
   viewBox="0 0 143 151"
   sodipodi:docname="logo.svg"
   inkscape:version="1.2.1 (9c6d41e410, 2022-07-14)"
   xmlns:inkscape="http://www.inkscape.org/namespaces/inkscape"
   xmlns:sodipodi="http://sodipodi.sourceforge.net/DTD/sodipodi-0.dtd"
   xmlns="http://www.w3.org/2000/svg"
   xmlns:svg="http://www.w3.org/2000/svg">
  <defs
     id="defs3261">
    <inkscape:path-effect
       effect="spiro"
       id="path-effect5484"
       is_visible="true"
       lpeversion="1" />
    <inkscape:path-effect
       effect="bspline"
       id="path-effect5476"
       is_visible="true"
       lpeversion="1"
       weight="33.333333"
       steps="2"
       helper_size="0"
       apply_no_weight="true"
       apply_with_weight="true"
       only_selected="false" />
  </defs>
  <sodipodi:namedview
     id="namedview3259"
     pagecolor="#ffffff"
     bordercolor="#000000"
     borderopacity="0.25"
     inkscape:showpageshadow="2"
     inkscape:pageopacity="0.0"
     inkscape:pagecheckerboard="0"
     inkscape:deskcolor="#d1d1d1"
     showgrid="false"
     showguides="false"
     inkscape:zoom="3.4768212"
     inkscape:cx="84.847619"
     inkscape:cy="65.864762"
     inkscape:window-width="1366"
     inkscape:window-height="705"
     inkscape:window-x="-8"
     inkscape:window-y="-8"
     inkscape:window-maximized="1"
     inkscape:current-layer="g3263" />
  <g
     inkscape:groupmode="layer"
     inkscape:label="Image"
     id="g3263">
    <g
       id="g5779"
       transform="translate(2.5885686,0.287619)">
      <path
         style="fill:#d93430"
         d="m 20.506222,133.41556 c 8.13509,-9.55874 13.82966,-19.52423 13.82966,-19.52423 l 5.28781,-10.779 3.45742,-12.406019 5.08443,-20.744493 2.64391,-15.253303 1.62702,-15.253303 0.61013,-13.016153 -0.20338,-10.168869 0.20338,-7.9317175 21.35462,5.8979445 -0.61013,21.558002 -1.22026,17.490454 -1.8304,14.643172 -1.8304,11.999265 -3.25403,14.439794 -2.84729,11.185756 -3.86417,11.18576 -5.08443,11.18575 -4.27093,7.93172 -2.23715,2.03377 z"
         id="path3271" />
      <path
         style="fill:#2890a9;fill-opacity:1"
         d="m 27.862701,118.16226 5.694567,-14.23642 3.86417,-15.660058 2.847283,-15.45668 L 41.692363,61.216591 42.70925,49.62408 V 37.828192 36.404551 l -7.524963,6.914831 -4.881058,4.067547 -3.660792,3.864171 -2.440529,4.067547 -2.237151,3.660793 -3.457416,6.508076 -3.254038,6.711454 -1.627019,6.508076 -0.610132,5.287812 -0.217104,8.330856 0.862857,5.464762 2.013333,5.464764 2.876191,5.60857 4.170476,5.32095 z"
         id="path3273" />
      <path
         style="fill:#2890a9;fill-opacity:1"
         d="m 77.080027,27.252569 1.016887,18.914096 0.203377,14.643171 -0.203377,12.812775 -0.81351,15.253304 L 76.469895,99.248161 75.24963,108.8069 72.605724,121.00954 93.756972,107.99339 88.875915,90.096179 85.418499,69.758441 82.367839,49.217326 81.350952,38.438325 80.537442,27.455946 Z"
         id="path4985" />
      <path
         style="fill:#d93430;fill-opacity:1"
         d="m 87.045518,11.185756 2.440529,-1.2202644 6.508076,-1.4236417 0.813509,22.5748891 1.016887,14.846549 1.423642,11.59251 2.440529,12.202643 2.64391,13.422907 3.05066,12.202643 3.45741,8.948609 3.25404,7.72834 3.25404,5.28781 2.44053,4.88105 4.27092,5.69457 4.4743,6.10132 -13.01615,1.42364 -6.10132,-4.27092 -3.45742,-4.4743 -2.23715,-4.67768 -2.44053,-5.28781 -2.440524,-6.10133 -1.627019,-4.67768 -1.220264,-5.28781 -1.627019,-6.101319 -1.220264,-5.084434 -1.016887,-8.338473 -0.81351,-5.694566 -1.016887,-6.711454 -0.813509,-7.118208 -0.81351,-6.101322 -0.813509,-8.541849 -0.81351,-5.694567 v -5.897944 l -0.406755,-7.524963 0.203378,-7.321586 z"
         id="path4989" />
      <path
         style="fill:#2890a9;fill-opacity:1"
         d="m 100.46843,31.523494 1.22026,9.355359 1.62702,9.35536 2.44053,12.812774 2.6439,9.35536 2.03378,8.745227 2.03377,6.508076 4.06755,-6.304698 2.44053,-4.474303 2.23715,-6.508076 1.42364,-6.101321 0.40675,-4.67768 -0.40675,-5.897944 -1.22026,-4.067548 -2.03378,-4.067547 -2.6439,-3.457416 -2.44053,-2.847283 -2.03378,-1.423642 -1.83039,-1.423641 -1.8304,-1.423642 -3.45742,-2.033774 z"
         id="path5496" />
    </g>
  </g>
</svg>
